<svg width="1024" height="1024" viewBox="0 0 1024 1024" fill="none"
   xmlns="http://www.w3.org/2000/svg">
   <path d="M0 0h1024v1024H0z"/>
   <path fill="#FFF" d="M773.376 230.865A382.578 382.578 0 0 0 502.101 118.519c-51.74 0.085 -101.954 10.155 -149.257 30.227a383.052 383.052 0 0 0 -121.932 82.204 382.578 382.578 0 0 0 -112.356 271.265A382.578 382.578 0 0 0 230.903 773.499a382.578 382.578 0 0 0 271.275 112.356 382.578 382.578 0 0 0 271.275 -112.356 382.578 382.578 0 0 0 112.356 -271.275 382.104 382.104 0 0 0 -30.151 -149.343 384.948 384.948 0 0 0 -82.28 -122.017m-483.556 -25.704c3.461 -2.664 6.846 -5.48 10.392 -7.983 18.622 -13.056 39.253 -23.609 60.207 -32.398a367.881 367.881 0 0 1 141.682 -28.53c32.313 0 65.441 4.352 96.626 12.895 -12.326 4.997 -27.401 14.507 -52.708 36.105a316.681 316.681 0 0 0 -63.668 -0.322 350.815 350.815 0 0 0 -83.333 18.536 350.815 350.815 0 0 0 -57.543 26.197c-20.224 -7.253 -46.336 -15.796 -59.231 -19.987 2.01 0.635 6.201 -3.47 7.576 -4.513m349.449 95.905 -65.612 179.077 -157.393 30.217 -130.076 -134.353c8.789 -60.919 50.536 -114.916 50.536 -114.916 0.237 -0.171 27.477 -19.835 71.159 -35.063a324.267 324.267 0 0 1 77.293 -17.086 298.667 298.667 0 0 1 62.938 0.882zM150.234 489.406c-4.03 26.036 -4.921 53.03 -2.825 80.194a331.852 331.852 0 0 1 -7.49 -15.881 360.296 360.296 0 0 1 -3.631 -51.655c0 -53.997 11.691 -105.339 32.721 -151.514 -2.332 24.178 -1.204 49.237 0.484 68.267a325.215 325.215 0 0 0 -19.257 70.59m31.829 139.511a337.541 337.541 0 0 1 -10.24 -57.221c-2.408 -26.842 -1.688 -53.513 2.342 -79.066a293.926 293.926 0 0 1 14.753 -56.898c26.51 -22.405 61.649 -35.537 81.067 -41.586L397.653 525.995l-13.378 144.498 -124.757 41.671c-31.763 -23.372 -57.704 -54.329 -77.454 -83.247m379.108 209.218c-27.8 18.204 -98.076 22.566 -126.606 23.609a363.141 363.141 0 0 1 -90.747 -29.819 363.141 363.141 0 0 1 -70.76 -44.648c0.398 -0.721 -3.385 -39.168 -3.224 -53.191l126.047 -42.069 145.465 62.948 20.072 82.925zM802.873 710.542c-21.684 31.27 -47.635 60.369 -78.82 82.451 -29.26 20.622 -68.428 27.714 -103.244 33.441 -2.655 0.408 -35.935 5.879 -36.181 4.76l-20.072 -83.01 102.438 -106.629 135.633 -12.497c2.095 21.608 4.836 53.115 6.447 72.382 -2.086 3.063 -4.105 6.116 -6.201 9.102m2.086 -108.478a37.926 37.926 0 0 0 -1.441 2.655L668.444 617.15l-72.695 -127.175 65.764 -179.484 92.843 5.879a327.111 327.111 0 0 1 52.053 54.727 294.874 294.874 0 0 1 42.799 81.161C838.893 541.867 815.123 586.515 804.978 602.074m48.45 -201.643a319.526 319.526 0 0 0 -27.895 -44.326 346.074 346.074 0 0 0 -58.994 -61.165c-4.105 -20.395 -15.388 -52.471 -45.701 -86.158 0.569 0.408 1.138 0.891 1.707 1.289 1.849 1.375 3.622 2.825 5.471 4.191a367.881 367.881 0 0 1 125.478 185.363q-0.095 0.474 -0.076 0.806"/>
</svg>